# xmcd
#
# Track frame offsets:
#	150
#	21913
#	46608
#	58351
#	78478
#	106694
#	128798
#	140093
#	156188
#	176253
#
# Disc length: 2654 seconds
#
# Revision: 0
# Processed by: cddbd v1.4PL0 Copyright (c) Steve Scherf et al.
# Submitted via: audiograbber 1.80
#
DISCID=7e0a5c0a
DTITLE=Nuno Mindelis - Blues and Derivados
DYEAR=1900
DGENRE=
TTITLE0=Você Não Entende Nada
TTITLE1=Also Me And The Devil Blues
TTITLE2=Blues Para O Brasil
TTITLE3=Momento De Desejo
TTITLE4=I Put A Spell On You
TTITLE5=Magic's Blues
TTITLE6=Tv Set
TTITLE7=Eu Sou Menino
TTITLE8=Cobras E Lagartos
TTITLE9=Festim
EXTD=First record from Nuno Mindelis
EXTT0=
EXTT1=
EXTT2=
EXTT3=
EXTT4=
EXTT5=
EXTT6=
EXTT7=
EXTT8=
EXTT9=
PLAYORDER=
